                    <svg
                      xmlns="http://www.w3.org/2000/svg"
                      width="20px"
                      height="20px"
                      fill="none"
                      viewBox="0 0 24 24"
                      data-testid="svg_IconGiftBox"
                      role="img"
                    >
                      <path
                        fill="#191A1B"
                        fill-rule="evenodd"
                        d="M9 1a3 3 0 0 0-2.83 4H3a2 2 0 0 0-2 2v4a2 2 0 0 0 1 1.732V20a3 3 0 0 0 3 3h14a3 3 0 0 0 3-3v-7.268A2 2 0 0 0 23 11V7a2 2 0 0 0-2-2h-3.17A3 3 0 0 0 15 1h-.067a3.07 3.07 0 0 0-2.872 1.99L12 3.152l-.06-.162A3.07 3.07 0 0 0 9.066 1zm4 20h6a1 1 0 0 0 1-1v-7h-7zm-2-8v8H5a1 1 0 0 1-1-1v-7zm2-2h8V7h-6.586l1.293 1.293a1 1 0 0 1-1.414 1.414L13 8.414zm-2-2.586V11H3V7h6.586L8.293 8.293a1 1 0 0 0 1.414 1.414zM10.557 5H9a1 1 0 0 1 0-2h.067c.445 0 .843.276 1 .693zM15 5h-1.557l.49-1.307a1.07 1.07 0 0 1 1-.693H15a1 1 0 1 1 0 2"
                        clip-rule="evenodd"
                      ></path>
                    </svg>