<svg xmlns="http://www.w3.org/2000/svg" fill="none" viewBox="0 0 24 24" data-testid="svg_IconFreeShippingOutlined"><path fill="#191A1B" fill-rule="evenodd" d="M2 3a2 2 0 0 0-2 2v10a2 2 0 0 0 1.075 1.774q-.074.352-.075.726a3.5 3.5 0 1 0 6.965-.5h6.07q-.035.245-.035.5a3.5 3.5 0 1 0 6.965-.5H23a1 1 0 0 0 1-1v-3a1 1 0 0 0-.106-.447l-2-4A1 1 0 0 0 21 8h-2V5a2 2 0 0 0-2-2zm17.95 12H22v-1.764L20.382 10H19v4.337c.353.168.674.393.95.663M17 14.035V5H2v10.05A3.5 3.5 0 0 1 4.5 14c.954 0 1.818.381 2.45 1H15v.05a3.5 3.5 0 0 1 2-1.015M4.5 16a1.5 1.5 0 1 0 0 3 1.5 1.5 0 0 0 0-3M16 17.5a1.5 1.5 0 1 1 3 0 1.5 1.5 0 0 1-3 0" clip-rule="evenodd"></path></svg>