<svg xmlns="http://www.w3.org/2000/svg" width="20px" height="20px" fill="none" viewBox="0 0 24 24" data-testid="svg_IconHeartOutlined" class="piRuM"><g clip-path="url(#clip0_1864_131)"><path fill="#191A1B" fill-rule="evenodd" d="M0 8.75a6.75 6.75 0 0 1 12-4.243A6.75 6.75 0 0 1 24 8.75c0 3.95-2.853 7.41-5.528 9.818-2.726 2.454-5.54 4.057-5.941 4.281a1.09 1.09 0 0 1-1.062 0c-.4-.224-3.214-1.827-5.94-4.28C2.852 16.16 0 12.7 0 8.75M6.75 4A4.75 4.75 0 0 0 2 8.75c0 3.033 2.25 5.977 4.866 8.332 2.07 1.862 4.204 3.21 5.134 3.764.93-.554 3.065-1.902 5.134-3.764C19.75 14.727 22 11.782 22 8.75a4.75 4.75 0 0 0-9.087-1.94 1 1 0 0 1-1.825 0A4.75 4.75 0 0 0 6.75 4" clip-rule="evenodd"></path></g><defs><clipPath id="clip0_1864_131"><path fill="#fff" d="M0 0h24v24H0z"></path></clipPath></defs></svg>