<svg xmlns="http://www.w3.org/2000/svg" width="20px" height="20px" fill="none" viewBox="0 0 24 24" data-testid="svg_IconNordyClubOutlined" class="piRuM"><g clip-path="url(#clip0_1210_1439)"><path fill="#191A1B" fill-rule="evenodd" d="M12 0C5.373 0 0 5.373 0 12s5.373 12 12 12 12-5.373 12-12S18.627 0 12 0M2 12C2 6.477 6.477 2 12 2c2.51 0 4.803.924 6.56 2.451-.464.54-.962 1.212-1.472 1.951-.79 1.144-1.657 2.518-2.539 3.966-.87 1.427-1.734 2.891-2.564 4.296q-.58.983-1.132 1.912c.354-3.587 1.036-8.135 1.71-11.05a1.296 1.296 0 0 0-.688-1.465 1.275 1.275 0 0 0-1.606.4c-2.41 3.31-5.4 9.06-6.847 12.682A9.95 9.95 0 0 1 2 12m2.862 7.003A9.97 9.97 0 0 0 12 22c5.523 0 10-4.477 10-10a9.96 9.96 0 0 0-2.061-6.082 24 24 0 0 0-1.205 1.62c-.758 1.098-1.602 2.435-2.477 3.87a373 373 0 0 0-2.53 4.24 280 280 0 0 1-2.551 4.262c-.73 1.183-2.61.692-2.53-.786.146-2.737.652-6.901 1.259-10.44-2.104 3.53-4.217 7.904-5.043 10.32" clip-rule="evenodd"></path></g><defs><clipPath id="clip0_1210_1439"><path fill="#fff" d="M0 0h24v24H0z"></path></clipPath></defs></svg>