<svg xmlns="http://www.w3.org/2000/svg" width="20px" height="20px" fill="none" viewBox="0 0 24 24" data-testid="svg_IconSecureOutlined" class="piRuM"><path fill="#191A1B" d="M12 12a2 2 0 0 0-1 3.732V17a1 1 0 0 0 2 0v-1.268A2 2 0 0 0 12 12"></path><path fill="#191A1B" fill-rule="evenodd" d="M7 8V6a5 5 0 1 1 10 0v2h2a3 3 0 0 1 3 3v8a3 3 0 0 1-3 3H5a3 3 0 0 1-3-3v-8a3 3 0 0 1 3-3zm2-2a3 3 0 0 1 6 0v2H9zm-4 4a1 1 0 0 0-1 1v8a1 1 0 0 0 1 1h14a1 1 0 0 0 1-1v-8a1 1 0 0 0-1-1z" clip-rule="evenodd"></path></svg>