<svg xmlns="http://www.w3.org/2000/svg" width="20px" height="20px" fill="none" viewBox="0 0 24 24" data-testid="svg_IconCreditCardBackOutlined" class="piRuM"><path fill="#191A1B" d="M18 12a1 1 0 1 0 0 2h1a1 1 0 1 0 0-2zM13 13a1 1 0 0 1 1-1h1a1 1 0 1 1 0 2h-1a1 1 0 0 1-1-1M10 12a1 1 0 1 0 0 2h1a1 1 0 1 0 0-2z"></path><path fill="#191A1B" fill-rule="evenodd" d="M0 6a3 3 0 0 1 3-3h18a3 3 0 0 1 3 3v12a3 3 0 0 1-3 3H3a3 3 0 0 1-3-3zm22 0v2H2V6a1 1 0 0 1 1-1h18a1 1 0 0 1 1 1m0 4H2v8a1 1 0 0 0 1 1h18a1 1 0 0 0 1-1z" clip-rule="evenodd"></path></svg>