<svg xmlns="http://www.w3.org/2000/svg" width="24px" height="24px" fill="none" viewBox="0 0 24 24" data-testid="svg_IconBoxOutlined" class="BmW1d"><path fill="#191A1B" fill-rule="evenodd" d="M11.188 1.267a2 2 0 0 1 1.624 0l9.594 4.264a1 1 0 0 1 .594.913v10.462a2 2 0 0 1-1.188 1.827l-9 4a2 2 0 0 1-1.624 0l-9-4A2 2 0 0 1 1 16.906V6.444a1 1 0 0 1 .594-.913zM3 16.906l8 3.555v-8.824L3 7.911zm1.526-10.49 2.445 1.139 7.356-3.426L12 3.094zm12.225-1.21L9.34 8.658 12 9.897l7.474-3.481zM21 7.91l-8 3.726v8.824l8-3.555z" clip-rule="evenodd"></path></svg>